<?xml version="1.0" standalone="no"?><!DOCTYPE svg PUBLIC "-//W3C//DTD SVG 1.1//EN" "http://www.w3.org/Graphics/SVG/1.1/DTD/svg11.dtd"><svg t="1584502402069" class="icon" viewBox="0 0 1024 1024" version="1.1" xmlns="http://www.w3.org/2000/svg" p-id="2323" xmlns:xlink="http://www.w3.org/1999/xlink" width="200" height="200"><defs><style type="text/css"></style></defs><path d="M554.6 665m-213.9 0a213.9 213.9 0 1 0 427.8 0 213.9 213.9 0 1 0-427.8 0Z" fill="#FEEED9" p-id="2324"></path><path d="M255.2 726c-1.3 0-2.6-0.2-3.9-0.5-8-2.1-12.8-10.4-10.6-18.4l106.6-397.7c2.1-8 10.4-12.7 18.4-10.6 8 2.1 12.8 10.4 10.6 18.4L269.7 714.9c-1.8 6.7-7.9 11.1-14.5 11.1z" fill="#00AB95" p-id="2325"></path><path d="M373.3 327c-3.6 0-7.3-0.5-11-1.5-22.7-6.1-36.3-29.5-30.2-52.2 1.4-5.2 3.7-10 6.8-14.2-2-7.6-2-15.6 0.1-23.4 1.3-4.9 3.4-9.5 6.2-13.7-1.9-7.9-1.8-16.1 0.4-24 1.2-4.6 3.1-8.9 5.6-13-1.8-8.2-1.6-16.6 0.6-24.9 7.6-28.2 36.6-45 64.8-37.4 28.2 7.6 45 36.6 37.4 64.8-2.2 8.2-6.3 15.7-11.9 21.8 0.1 4.7-0.4 9.5-1.7 14-2.1 7.9-6.2 15.1-11.7 21 0.3 5-0.1 10.1-1.5 15-2.1 7.8-6.1 14.7-11.6 20.3 0.6 5.2 0.2 10.5-1.2 15.7-5 19.2-22.3 31.7-41.1 31.7z m29.6-176.1c-10.1 0-19.4 6.8-22.2 17-1.3 4.8-1 9.8 0.8 14.4l3.5 8.7-6.2 6.9c-2 2.3-3.5 4.9-4.3 7.8-1.2 4.4-0.8 9 1.1 13.1l4.6 9.9-7.9 7.4c-2.1 2-3.6 4.5-4.4 7.4-1.1 4-0.5 8.2 1.5 11.7l6.3 11.3-10.2 7.9c-1.5 1.2-3.6 3.3-4.5 6.7-1.8 6.7 2.2 13.7 9 15.5 6.7 1.8 13.7-2.2 15.5-8.9 0.9-3.4 0.2-6.3-0.5-8.1l-4.9-12 11.1-6.6c3.5-2.1 6.1-5.5 7.1-9.4 0.8-2.8 0.7-5.8-0.1-8.6l-3.1-10.4 8.9-6.2c3.7-2.6 6.4-6.4 7.5-10.7 0.8-3 0.9-6 0.2-8.9l-1.9-9.1 7.3-5.8c3.9-3.1 6.6-7.2 7.9-12 3.3-12.2-4-24.8-16.2-28.1-1.9-0.7-3.9-0.9-5.9-0.9zM219.2 882.3c-3.1 0-6.3-0.4-9.4-1.2-30-8-42.2-52.8-28.5-104.1 13.7-51.3 46.7-83.9 76.7-75.9s42.2 52.8 28.5 104.1c-6 22.4-16.2 42.4-28.8 56.5-12 13.6-25.5 20.6-38.5 20.6zM248.8 730c-4.2 0-10.4 4-16.3 10.6-9.3 10.5-17.4 26.6-22.2 44.3-4.7 17.7-5.8 35.7-2.9 49.4 2 9.8 6.1 16.8 10.2 17.9 4.2 1.1 11.2-3 17.8-10.4 9.3-10.5 17.4-26.6 22.2-44.3 4.7-17.7 5.8-35.7 2.9-49.4-2-9.8-6.1-16.8-10.2-17.9-0.5-0.1-1-0.2-1.5-0.2zM676.9 686.2c-8.3 0-15-6.7-15-15V307.4c0-8.3 6.7-15 15-15s15 6.7 15 15v363.8c0 8.3-6.7 15-15 15z" fill="#00AB95" p-id="2326"></path><path d="M676 882.3c-29.2 0-52.9-23.8-52.9-52.9 0-8.5 2-16.8 5.8-24.2-1.3-4.5-2-9.2-2-14 0-8.2 2-16.2 5.9-23.3-1.6-4.7-2.5-9.8-2.5-14.8 0-8.1 2.1-15.8 6-22.6-1.9-4.9-2.9-10.1-2.9-15.5 0-23.5 19.1-42.7 42.7-42.7s42.7 19.1 42.7 42.7c0 5.4-1 10.6-2.9 15.5 3.9 6.8 6 14.6 6 22.6 0 5.1-0.8 10.1-2.5 14.8 3.8 7.1 5.9 15.1 5.9 23.3 0 4.7-0.7 9.5-2 14 3.8 7.4 5.8 15.6 5.8 24.2-0.1 29.2-23.9 52.9-53.1 52.9z m0-180c-7 0-12.7 5.7-12.7 12.7 0 3.5 1.4 6.1 2.6 7.7l7.8 10.3-9 9.3c-2.9 3-4.5 6.8-4.5 11 0 2.9 0.8 5.8 2.3 8.3l5.7 9.2-7 8.3c-2.9 3.4-4.5 7.8-4.5 12.3 0 3.1 0.7 6 2.1 8.7l4.2 8.3-5.6 7.5c-3 4-4.5 8.7-4.5 13.7 0 12.7 10.3 22.9 22.9 22.9 12.6 0 22.9-10.3 22.9-22.9 0-5-1.6-9.7-4.5-13.7l-5.6-7.5 4.2-8.3c1.4-2.7 2.1-5.6 2.1-8.7 0-4.5-1.6-8.9-4.5-12.3l-7-8.3 5.7-9.2c1.5-2.5 2.3-5.3 2.3-8.3 0-4.1-1.6-8-4.5-11l-9-9.3 7.8-10.3c1.2-1.5 2.6-4.1 2.6-7.7 0.4-7.1-5.3-12.7-12.3-12.7zM527.2 713.4c-8.3 0-15-6.7-15-15v-391c0-8.3 6.7-15 15-15s15 6.7 15 15v391c0 8.3-6.7 15-15 15z" fill="#00AB95" p-id="2327"></path><path d="M525.2 882.3c-31.1 0-54.5-40-54.5-93.1s23.4-93.1 54.5-93.1 54.5 40 54.5 93.1-23.5 93.1-54.5 93.1z m0-156.2c-4.3 0-10 5.7-14.5 14.6-6.3 12.5-9.9 30.2-9.9 48.5s3.6 36 9.9 48.5c4.5 8.9 10.2 14.6 14.5 14.6s10-5.7 14.5-14.6c6.3-12.5 9.9-30.2 9.9-48.5s-3.6-36-9.9-48.5c-4.5-8.9-10.2-14.6-14.5-14.6zM677.1 319.9c-31.1 0-54.5-40-54.5-93.1s23.4-93.1 54.5-93.1 54.5 40 54.5 93.1-23.5 93.1-54.5 93.1z m0-156.3c-4.3 0-10 5.7-14.5 14.6-6.3 12.5-9.9 30.2-9.9 48.5s3.6 36 9.9 48.5c4.5 8.9 10.2 14.6 14.5 14.6 4.3 0 10-5.7 14.5-14.6 6.3-12.5 9.9-30.2 9.9-48.5s-3.6-36-9.9-48.5c-4.5-8.8-10.2-14.6-14.5-14.6zM525.2 319.9c-22.5 0-36.7-7.8-47.5-26-8.7-14.7-8.1-32.4-7.4-51.1 0.2-5.2 0.4-10.6 0.4-16 0-53.1 23.4-93.1 54.5-93.1s54.5 40 54.5 93.1c0 5.4 0.2 10.8 0.4 15.9 0.7 18.8 1.3 36.6-7.4 51.3-10.7 17.9-25.3 25.9-47.5 25.9z m0-156.3c-4.3 0-10 5.7-14.5 14.6-6.3 12.5-9.9 30.2-9.9 48.5 0 6-0.2 11.6-0.4 17.1-0.6 14.8-1 27.6 3.2 34.7 4.5 7.7 8.2 11.3 21.7 11.3 12.7 0 17.1-3.6 21.6-11.2 4.2-7.1 3.8-20 3.2-34.9-0.2-5.5-0.4-11.1-0.4-17 0-18.3-3.6-36-9.9-48.5-4.6-8.8-10.3-14.6-14.6-14.6z" fill="#00AB95" p-id="2328"></path></svg>